<svg width="126" height="20" viewBox="0 0 126 20" fill="none" xmlns="http://www.w3.org/2000/svg">
    <path d="M88.5115 10.0198C88.4522 12.3323 89.4207 14.368 91.6343 15.2772C92.5237 15.6527 93.3143 15.6725 93.6701 15.6725C95.0141 15.6725 96.0418 15.2179 96.4569 14.9412C97.1684 14.5064 97.3068 14.0123 97.3068 13.617C97.3068 13.1228 97.0498 12.6287 96.6348 12.4113C96.4569 12.3125 96.2988 12.273 96.1011 12.273C95.7454 12.273 95.607 12.352 95.0338 12.5497C94.8757 12.609 94.4211 12.7473 93.9072 12.7473C93.4527 12.7473 93.0178 12.6287 92.6225 12.3718C92.1679 12.0753 91.5948 11.4824 91.5948 10.1977C91.5948 9.38732 91.832 8.63626 92.4447 8.12238C92.9981 7.64802 93.6108 7.58873 93.8677 7.58873C94.2828 7.58873 94.6583 7.70732 94.7769 7.76661C95.4686 8.00379 95.5872 8.10261 96.0221 8.10261C96.9115 8.10261 97.1882 7.41085 97.2672 7.09461C97.3068 6.93649 97.287 6.85744 97.287 6.75861C97.287 5.98779 96.6348 5.39485 95.9825 5.13791C95.1524 4.78214 93.927 4.76238 93.7689 4.76238C91.5157 4.76238 90.2508 5.90873 89.6776 6.6005C88.6301 7.8852 88.5312 9.44661 88.5115 10.0198Z" fill="#E27300"/>
    <path d="M101.784 2.25226C101.784 1.97555 101.843 1.04661 101.033 0.552495C100.697 0.354848 100.4 0.335083 100.262 0.335083C99.7876 0.335083 99.4318 0.592023 99.3132 0.710612C98.7005 1.24426 98.7005 1.93602 98.7203 2.70685V13.5972C98.7598 14.368 98.8191 14.9412 99.4911 15.3365C99.8271 15.5341 100.104 15.5539 100.262 15.5539C100.44 15.5539 100.776 15.5144 101.132 15.2574C101.705 14.8226 101.744 14.2494 101.784 13.4984V2.25226Z" fill="#E27300"/>
    <path d="M106.636 6.58073C106.597 6.10638 106.577 5.71108 106.261 5.35532C105.885 4.90073 105.332 4.84144 105.134 4.84144C104.719 4.84144 104.403 5.01932 104.284 5.09838C103.711 5.47391 103.632 6.00755 103.573 6.65979V11.1266C103.593 11.8777 103.612 12.4706 103.889 13.1624C103.968 13.3205 104.067 13.5972 104.344 13.953C105.213 15.0993 106.794 15.6725 108.218 15.6725C110.056 15.6725 111.953 14.8226 112.605 13.0636C112.823 12.4706 112.823 11.8579 112.842 11.2057V6.58073C112.823 6.30402 112.842 5.5332 112.111 5.07861C111.775 4.8612 111.439 4.84144 111.301 4.84144C110.886 4.84144 110.57 5.01932 110.471 5.09838C109.818 5.5332 109.779 6.14591 109.759 6.89697V10.7906C109.739 11.5417 109.72 12.0951 109.087 12.5299C108.81 12.7078 108.554 12.8066 108.218 12.8066C107.842 12.8066 107.546 12.6485 107.427 12.5892C106.775 12.2137 106.696 11.6603 106.636 10.929V6.58073Z" fill="#E27300"/>
    <path d="M114.68 13.5379C114.68 14.0913 114.68 14.5657 115.036 15.0203C115.431 15.5144 115.945 15.5934 116.183 15.5934C116.657 15.5934 117.191 15.3365 117.447 14.9214C117.527 14.7633 117.586 14.5459 117.606 14.5064C117.803 14.7238 118.06 14.9807 118.297 15.1388C119.088 15.712 119.938 15.6725 120.274 15.6725C120.689 15.6725 121.084 15.6527 121.46 15.5341C122.369 15.297 123.001 14.7831 123.258 14.5459C124.978 13.0438 125.077 10.9092 125.077 10.1581C125.077 8.14214 124.207 6.18544 122.369 5.21697C121.499 4.76238 120.689 4.70308 120.313 4.70308C118.95 4.70308 118.179 5.29602 117.744 5.59249V2.37085C117.724 1.67908 117.704 1.08614 117.092 0.671082C116.855 0.512965 116.558 0.414141 116.262 0.414141C116.084 0.414141 115.708 0.453671 115.333 0.730377C114.7 1.20473 114.68 1.81744 114.68 2.56849V13.5379ZM117.665 10.0198C117.724 9.13038 118.119 8.26073 118.91 7.86544C119.305 7.64802 119.701 7.62826 119.879 7.62826C120.452 7.62826 120.827 7.86544 121.005 7.98402C121.993 8.67579 122.053 9.78261 122.053 10.1581C122.053 10.5337 121.974 12.0753 120.709 12.6287C120.353 12.7868 119.997 12.8066 119.859 12.8066C119.266 12.8066 118.851 12.5299 118.673 12.4113C117.902 11.8579 117.606 10.9487 117.665 10.0198Z" fill="#E27300"/>
    <path d="M36.3906 7.78638C37.1615 7.80614 37.5963 7.78638 37.9323 7.60849C38.5252 7.27249 38.6241 6.64002 38.6241 6.42261C38.6241 6.26449 38.5845 5.8692 38.3078 5.51344C37.9125 4.99955 37.5172 4.99955 36.3906 4.97979C36.3709 4.36708 36.3709 3.81367 36.4302 3.61602C36.5883 3.04285 37.201 3.06261 37.3986 3.02308C38.2881 2.90449 38.4264 2.07438 38.4264 1.79767C38.4264 1.42214 38.288 1.08614 38.0311 0.8292C37.7939 0.592023 37.4382 0.354848 36.6871 0.354848C35.6 0.354848 34.6909 0.631553 33.9596 1.54073C33.5445 2.07438 33.3469 2.60802 33.3271 3.26026C33.2876 3.83344 33.3271 4.40661 33.3073 4.96002C32.6749 4.99955 32.1017 5.05885 31.6866 5.65179C31.4692 5.96802 31.4495 6.24473 31.4495 6.38308C31.4495 6.67955 31.5483 6.95626 31.7262 7.19344C32.0226 7.58873 32.3389 7.74685 33.2876 7.76661L33.3073 13.5774C33.3073 14.3087 33.3271 14.8819 33.9793 15.297C34.3351 15.5144 34.6513 15.5539 34.8292 15.5539C35.1652 15.5539 35.4815 15.4353 35.7384 15.2377C36.3116 14.8226 36.3511 14.2099 36.3906 13.4984V7.78638Z" fill="#0067B5"/>
    <path d="M49.5444 6.93649C49.5444 6.32379 49.5444 5.84944 49.1491 5.39485C49.0107 5.21696 48.6352 4.8612 48.0225 4.8612C47.2714 4.8612 46.9157 5.29602 46.5204 5.88897C45.71 5.17744 45.1368 4.74261 44.03 4.74261C42.9429 4.74261 42.0931 5.17744 41.7768 5.35532C39.4248 6.71908 39.2272 9.38732 39.2272 10.257C39.2272 12.5101 40.2945 13.8146 40.9467 14.4076C41.3222 14.7831 42.3698 15.6527 43.9312 15.6527C44.9194 15.6527 45.5519 15.2772 45.8681 15.04C46.0855 14.8621 46.4413 14.5064 46.4611 14.4866C46.8564 15.0796 47.1924 15.5539 47.9632 15.5539C48.2992 15.5539 48.5957 15.4551 48.8921 15.2377C49.4851 14.8028 49.5246 14.289 49.5444 13.5774V6.93649ZM42.2907 10.0198C42.3895 8.14214 43.6347 7.62826 44.3858 7.62826C45.2554 7.62826 45.9867 8.33979 46.2634 9.15014C46.4018 9.5652 46.4215 9.94073 46.4215 10.1186C46.4018 11.0278 46.0855 11.9567 45.3345 12.4508C45.1961 12.5299 44.8008 12.7671 44.3067 12.7671C43.7731 12.7671 43.4173 12.5101 43.2394 12.3916C42.2314 11.6207 42.2512 10.3953 42.2907 10.0198Z" fill="#0067B5"/>
    <path d="M54.4659 5.77038C54.0509 5.25649 53.7149 4.8612 53.0231 4.8612C52.8255 4.8612 52.4895 4.88097 52.1139 5.17744C51.5408 5.65179 51.521 6.22497 51.5012 6.48191V13.5379C51.5012 14.2692 51.521 14.8028 52.1732 15.2574C52.2918 15.3563 52.5883 15.5539 53.0231 15.5539C53.201 15.5539 53.4975 15.5341 53.8532 15.297C54.5055 14.8621 54.5252 14.2692 54.545 13.4984V9.2885C54.5648 8.49791 54.6438 8.20144 54.881 7.8852C55.1577 7.50967 55.632 7.25273 56.1262 7.25273C56.4424 7.25273 56.7982 7.37132 57.0551 7.56897C57.6085 7.98402 57.6283 8.5572 57.648 9.26873V13.4984C57.6678 14.2494 57.6876 14.8621 58.3398 15.297C58.577 15.4748 58.8734 15.5737 59.1897 15.5737C59.6443 15.5737 59.9803 15.3563 60.0989 15.2574C60.7116 14.7831 60.7313 14.2297 60.7313 13.4984V9.26873C60.7313 9.2292 60.7116 8.77461 60.7906 8.47814C60.9685 7.78638 61.5615 7.29226 62.2532 7.29226C62.5299 7.29226 62.8462 7.39108 63.0833 7.5492C63.7751 7.98402 63.7949 8.53744 63.7949 9.30826V13.5181C63.8146 14.0913 63.8146 14.5854 64.1902 15.0203C64.4669 15.3365 64.8622 15.5737 65.297 15.5737C65.6923 15.5737 66.0283 15.376 66.1271 15.3167C66.7991 14.8819 66.8189 14.2692 66.8584 13.5181V8.75485C66.7991 7.78638 66.7398 7.37132 66.5817 6.93649C66.2259 5.94826 65.3168 5.15767 64.2692 4.8612C63.953 4.78214 63.5972 4.72285 63.2415 4.72285C62.3323 4.72285 61.4231 4.99955 60.672 5.51344C60.5337 5.61226 60.336 5.75061 60.0593 6.00755C59.5257 5.49367 58.8537 4.74261 57.1342 4.74261C55.968 4.74261 55.3553 5.13791 54.9403 5.41461L54.4659 5.77038Z" fill="#0067B5"/>
    <path d="M68.5288 2.03485C68.4498 3.04285 69.2206 3.87296 70.2483 3.87296C71.1971 3.87296 72.0272 3.12191 72.0272 2.15344C72.0272 1.18497 71.2563 0.414141 70.3076 0.414141C69.3985 0.414141 68.6079 1.12567 68.5288 2.03485ZM71.7702 6.79814C71.7307 6.12614 71.6912 5.5332 71.118 5.11814C70.782 4.88096 70.4262 4.8612 70.2681 4.84144C70.0902 4.84144 69.7345 4.88097 69.3589 5.17744C68.766 5.63202 68.7265 6.2052 68.7067 6.93649V13.7158C68.7462 14.4076 68.8253 14.6645 69.0427 14.9412C69.4182 15.4353 70.0112 15.5341 70.2286 15.5341C70.6239 15.5341 70.9401 15.3563 71.0587 15.297C71.6516 14.9017 71.7109 14.3285 71.7702 13.617V6.79814Z" fill="#0067B5"/>
    <path d="M76.7414 2.25226C76.7414 1.97555 76.8007 1.04661 75.9903 0.552495C75.6543 0.354848 75.3578 0.335083 75.2195 0.335083C74.7451 0.335083 74.3894 0.592023 74.2708 0.710612C73.6581 1.24426 73.6581 1.93602 73.6778 2.70685V13.5972C73.7174 14.368 73.7767 14.9412 74.4487 15.3365C74.7847 15.5341 75.0614 15.5539 75.2195 15.5539C75.3974 15.5539 75.7334 15.5144 76.0891 15.2574C76.6623 14.8226 76.7018 14.2494 76.7414 13.4984V2.25226Z" fill="#0067B5"/>
    <path d="M82.7403 10.672L81.0603 6.34355C80.8428 5.80991 80.6254 5.29602 80.1313 4.99955C79.8348 4.80191 79.5977 4.80191 79.4593 4.80191C78.8664 4.80191 78.2537 5.15767 77.9967 5.71108C77.8781 5.94826 77.8781 6.14591 77.8781 6.26449C77.8781 6.69932 78.0363 7.05508 78.1944 7.43061L81.1591 14.4076L79.993 16.9967C79.9534 17.0758 79.6174 17.7083 79.6174 18.1826C79.6174 18.736 80.0127 19.329 80.5661 19.5661C80.744 19.6254 80.9021 19.665 81.0998 19.665C81.5544 19.665 81.9694 19.4871 82.2461 19.1906C82.5228 18.8941 82.681 18.4791 82.8391 18.1036L87.3257 7.47014C87.3652 7.35155 87.6617 6.79814 87.6617 6.32379C87.6617 5.79014 87.3257 5.1972 86.8118 4.94026C86.5548 4.82167 86.3177 4.80191 86.1991 4.80191C85.2899 4.80191 84.9341 5.47391 84.7958 5.71108C84.697 5.88897 84.6179 6.06685 84.5388 6.24473L82.7403 10.672Z" fill="#0067B5"/>
    <path d="M0.389128 13.0438C0.329834 13.2217 0.329834 13.3798 0.329834 13.4589C0.329834 13.9332 0.665836 14.3483 1.00184 14.6448C1.79242 15.297 3.13642 15.633 4.18395 15.633C5.60701 15.633 7.0696 15.0598 7.80089 13.7751C8.15666 13.1427 8.19619 12.5695 8.19619 12.2928C8.19619 11.7987 8.01831 10.7907 6.99054 9.9803C6.31854 9.44665 5.48842 9.16995 5.25125 9.07113C4.83619 8.91301 4.24325 8.73513 3.88748 8.43866C3.74913 8.32007 3.65031 8.18171 3.65031 8.00383C3.65031 7.80618 3.78866 7.41089 4.34207 7.41089C4.77689 7.41089 5.19195 7.58877 5.54772 7.74689C5.90348 7.88524 6.31854 8.06313 6.71383 8.06313C7.38583 8.06313 7.70207 7.52948 7.80089 7.2923C7.87995 7.11442 7.89972 6.99583 7.89972 6.81795C7.89972 6.56101 7.84042 6.18548 7.42536 5.73089C6.69407 4.96007 5.3896 4.78218 5.19195 4.74265C4.87572 4.70312 4.63854 4.70313 4.51996 4.70313C4.00607 4.70313 2.46442 4.76242 1.41689 6.02736C0.744893 6.83771 0.646068 7.66783 0.646068 8.08289C0.646068 8.37936 0.725129 9.3083 1.37736 9.9803C1.83195 10.4547 2.50395 10.7314 3.68984 11.2057C4.28278 11.4429 4.51995 11.4824 4.75713 11.6801C4.85595 11.7394 5.15242 11.9963 5.15242 12.3323C5.15242 12.5892 4.93501 12.8264 4.65831 12.9252C4.51995 12.9648 4.40136 12.9648 4.34207 12.9648C3.92701 12.9648 3.55148 12.8264 2.82019 12.4707C2.46442 12.2928 2.10866 12.0754 1.71336 12.0754C1.14019 12.0754 0.56701 12.4904 0.389128 13.0438Z" fill="#F0AB00"/>
    <path d="M12.6036 6.58077C12.564 6.10642 12.5443 5.71113 12.228 5.35536C11.8525 4.90077 11.2991 4.84148 11.1014 4.84148C10.6864 4.84148 10.3701 5.01936 10.2516 5.09842C9.67838 5.47395 9.59933 6.0076 9.54003 6.65983V11.1267C9.5598 11.8777 9.57956 12.4707 9.85627 13.1624C9.93533 13.3205 10.0341 13.5972 10.3109 13.953C11.1805 15.0994 12.7617 15.6725 14.1847 15.6725C16.0229 15.6725 17.9203 14.8227 18.5725 13.0636C18.7899 12.4707 18.7899 11.8579 18.8097 11.2057V6.58077C18.7899 6.30407 18.8097 5.53324 18.0784 5.07866C17.7424 4.86124 17.4064 4.84148 17.268 4.84148C16.853 4.84148 16.5367 5.01936 16.4379 5.09842C15.7857 5.53324 15.7462 6.14595 15.7264 6.89701V10.7907C15.7066 11.5417 15.6869 12.0951 15.0544 12.5299C14.7777 12.7078 14.5207 12.8067 14.1847 12.8067C13.8092 12.8067 13.5127 12.6485 13.3942 12.5892C12.7419 12.2137 12.6629 11.6603 12.6036 10.929V6.58077Z" fill="#F0AB00"/>
    <path d="M30.2533 8.51771C30.2335 8.3596 30.2138 7.31207 29.9173 6.64007C29.5813 5.90877 28.5535 4.72289 26.4782 4.72289C25.2726 4.72289 24.6599 5.11818 23.6716 5.80995C23.2961 5.29607 22.9601 4.88101 22.2684 4.88101C21.9324 4.88101 21.6556 4.97983 21.3987 5.15771C20.7662 5.6123 20.7069 6.22501 20.6674 6.93654V13.3008C20.6674 14.0518 20.6674 14.6843 21.3196 15.1784C21.4382 15.2772 21.794 15.5144 22.2288 15.5144C22.5451 15.5144 22.8613 15.3958 23.1182 15.2179C23.6914 14.8029 23.7112 14.21 23.7112 13.4984V9.60477C23.7507 8.81418 23.7902 8.16195 24.4622 7.6876C24.6006 7.56901 24.9564 7.3516 25.4505 7.3516C25.8062 7.3516 26.1818 7.47018 26.4782 7.6876C27.1305 8.14218 27.1502 8.71536 27.17 9.50595V13.3996C27.1898 14.1507 27.2095 14.7831 27.8618 15.2575C27.9606 15.3365 28.2966 15.5539 28.7116 15.5539C28.85 15.5539 29.2058 15.5144 29.5615 15.2772C30.2335 14.8029 30.2533 14.1902 30.2533 13.4194V8.51771Z" fill="#F0AB00"/>
</svg>
