<svg width="174" height="20" viewBox="0 0 174 20" fill="none" xmlns="http://www.w3.org/2000/svg">
    <path d="M136.807 10.1937C136.748 12.5062 137.717 14.542 139.93 15.4512C140.82 15.8267 141.61 15.8464 141.966 15.8464C143.31 15.8464 144.338 15.3919 144.753 15.1152C145.464 14.6803 145.603 14.1862 145.603 13.7909C145.603 13.2968 145.346 12.8027 144.931 12.5853C144.753 12.4864 144.595 12.4469 144.397 12.4469C144.041 12.4469 143.903 12.526 143.33 12.7236C143.172 12.7829 142.717 12.9213 142.203 12.9213C141.749 12.9213 141.314 12.8027 140.918 12.5457C140.464 12.2493 139.891 11.6563 139.891 10.3716C139.891 9.56127 140.128 8.81021 140.741 8.29633C141.294 7.82197 141.907 7.76268 142.164 7.76268C142.579 7.76268 142.954 7.88127 143.073 7.94056C143.765 8.17774 143.883 8.27656 144.318 8.27656C145.207 8.27656 145.484 7.5848 145.563 7.26856C145.603 7.11044 145.583 7.03139 145.583 6.93256C145.583 6.16174 144.931 5.5688 144.278 5.31186C143.448 4.95609 142.223 4.93633 142.065 4.93633C139.812 4.93633 138.547 6.08268 137.973 6.77445C136.926 8.05915 136.827 9.62056 136.807 10.1937Z" fill="#E27300"/>
    <path d="M150.08 2.42621C150.08 2.1495 150.139 1.22056 149.329 0.726445C148.993 0.528798 148.696 0.509033 148.558 0.509033C148.083 0.509033 147.728 0.765973 147.609 0.884562C146.996 1.41821 146.996 2.10997 147.016 2.8808V13.7712C147.056 14.542 147.115 15.1152 147.787 15.5104C148.123 15.7081 148.4 15.7279 148.558 15.7279C148.736 15.7279 149.072 15.6883 149.427 15.4314C150.001 14.9966 150.04 14.4234 150.08 13.6723V2.42621Z" fill="#E27300"/>
    <path d="M154.932 6.75468C154.893 6.28033 154.873 5.88503 154.557 5.52927C154.181 5.07468 153.628 5.01539 153.43 5.01539C153.015 5.01539 152.699 5.19327 152.58 5.27233C152.007 5.64786 151.928 6.1815 151.869 6.83374V11.3006C151.888 12.0516 151.908 12.6446 152.185 13.3363C152.264 13.4944 152.363 13.7712 152.64 14.1269C153.509 15.2733 155.09 15.8464 156.513 15.8464C158.352 15.8464 160.249 14.9966 160.901 13.2375C161.119 12.6446 161.119 12.0319 161.138 11.3796V6.75468C161.119 6.47797 161.138 5.70715 160.407 5.25256C160.071 5.03515 159.735 5.01539 159.597 5.01539C159.182 5.01539 158.865 5.19327 158.767 5.27233C158.114 5.70715 158.075 6.31986 158.055 7.07092V10.9646C158.035 11.7156 158.016 12.269 157.383 12.7039C157.106 12.8817 156.849 12.9806 156.513 12.9806C156.138 12.9806 155.841 12.8224 155.723 12.7632C155.071 12.3876 154.992 11.8342 154.932 11.1029V6.75468Z" fill="#E27300"/>
    <path d="M162.976 13.7119C162.976 14.2653 162.976 14.7396 163.332 15.1942C163.727 15.6883 164.241 15.7674 164.478 15.7674C164.953 15.7674 165.486 15.5104 165.743 15.0954C165.822 14.9373 165.882 14.7199 165.901 14.6803C166.099 14.8977 166.356 15.1547 166.593 15.3128C167.384 15.886 168.234 15.8464 168.57 15.8464C168.985 15.8464 169.38 15.8267 169.756 15.7081C170.665 15.4709 171.297 14.957 171.554 14.7199C173.274 13.2177 173.373 11.0832 173.373 10.3321C173.373 8.31609 172.503 6.35939 170.665 5.39092C169.795 4.93633 168.985 4.87703 168.609 4.87703C167.246 4.87703 166.475 5.46997 166.04 5.76645V2.5448C166.02 1.85303 166 1.26009 165.388 0.845032C165.15 0.686916 164.854 0.588091 164.557 0.588091C164.38 0.588091 164.004 0.627621 163.629 0.904327C162.996 1.37868 162.976 1.99139 162.976 2.74244V13.7119ZM165.961 10.1937C166.02 9.30433 166.415 8.43468 167.206 8.03939C167.601 7.82197 167.997 7.80221 168.174 7.80221C168.748 7.80221 169.123 8.03939 169.301 8.15797C170.289 8.84974 170.349 9.95656 170.349 10.3321C170.349 10.7076 170.27 12.2493 169.005 12.8027C168.649 12.9608 168.293 12.9806 168.155 12.9806C167.562 12.9806 167.147 12.7039 166.969 12.5853C166.198 12.0319 165.901 11.1227 165.961 10.1937Z" fill="#E27300"/>
    <path d="M84.6865 7.96033C85.4574 7.98009 85.8922 7.96033 86.2282 7.78245C86.8211 7.44644 86.92 6.81397 86.92 6.59656C86.92 6.43844 86.8804 6.04315 86.6037 5.68739C86.2084 5.1735 85.8131 5.1735 84.6865 5.15374C84.6668 4.54103 84.6668 3.98762 84.7261 3.78997C84.8842 3.2168 85.4969 3.23656 85.6945 3.19703C86.584 3.07845 86.7223 2.24833 86.7223 1.97162C86.7223 1.59609 86.5839 1.26009 86.327 1.00315C86.0898 0.765973 85.7341 0.528798 84.983 0.528798C83.8959 0.528798 82.9868 0.805504 82.2555 1.71468C81.8404 2.24833 81.6428 2.78197 81.623 3.43421C81.5835 4.00739 81.623 4.58056 81.6032 5.13397C80.9708 5.1735 80.3976 5.2328 79.9825 5.82574C79.7651 6.14197 79.7454 6.41868 79.7454 6.55703C79.7454 6.8535 79.8442 7.13021 80.0221 7.36739C80.3185 7.76268 80.6348 7.9208 81.5835 7.94056L81.6032 13.7514C81.6032 14.4827 81.623 15.0559 82.2752 15.4709C82.631 15.6883 82.9472 15.7279 83.1251 15.7279C83.4611 15.7279 83.7774 15.6093 84.0343 15.4116C84.6075 14.9966 84.647 14.3839 84.6865 13.6723V7.96033Z" fill="#0067B5"/>
    <path d="M97.8403 7.11044C97.8403 6.49774 97.8403 6.02339 97.445 5.5688C97.3066 5.39092 96.9311 5.03515 96.3184 5.03515C95.5673 5.03515 95.2115 5.46997 94.8163 6.06292C94.0059 5.35139 93.4327 4.91656 92.3259 4.91656C91.2388 4.91656 90.389 5.35139 90.0727 5.52927C87.7207 6.89303 87.5231 9.56127 87.5231 10.4309C87.5231 12.6841 88.5904 13.9886 89.2426 14.5815C89.6181 14.957 90.6657 15.8267 92.2271 15.8267C93.2153 15.8267 93.8478 15.4512 94.164 15.214C94.3814 15.0361 94.7372 14.6803 94.757 14.6606C95.1523 15.2535 95.4883 15.7279 96.2591 15.7279C96.5951 15.7279 96.8916 15.629 97.188 15.4116C97.781 14.9768 97.8205 14.4629 97.8403 13.7514V7.11044ZM90.5866 10.1937C90.6854 8.31609 91.9306 7.80221 92.6817 7.80221C93.5513 7.80221 94.2826 8.51374 94.5593 9.32409C94.6977 9.73915 94.7174 10.1147 94.7174 10.2926C94.6977 11.2017 94.3814 12.1307 93.6304 12.6248C93.492 12.7039 93.0967 12.941 92.6026 12.941C92.069 12.941 91.7132 12.6841 91.5353 12.5655C90.5273 11.7947 90.5471 10.5693 90.5866 10.1937Z" fill="#0067B5"/>
    <path d="M102.762 5.94433C102.347 5.43045 102.011 5.03515 101.319 5.03515C101.121 5.03515 100.785 5.05492 100.41 5.35139C99.8366 5.82574 99.8169 6.39892 99.7971 6.65586V13.7119C99.7971 14.4432 99.8169 14.9768 100.469 15.4314C100.588 15.5302 100.884 15.7279 101.319 15.7279C101.497 15.7279 101.793 15.7081 102.149 15.4709C102.801 15.0361 102.821 14.4432 102.841 13.6723V9.46245C102.861 8.67186 102.94 8.37539 103.177 8.05915C103.454 7.68362 103.928 7.42668 104.422 7.42668C104.738 7.42668 105.094 7.54527 105.351 7.74292C105.904 8.15797 105.924 8.73115 105.944 9.44268V13.6723C105.964 14.4234 105.983 15.0361 106.636 15.4709C106.873 15.6488 107.169 15.7476 107.486 15.7476C107.94 15.7476 108.276 15.5302 108.395 15.4314C109.007 14.957 109.027 14.4036 109.027 13.6723V9.44268C109.027 9.40315 109.007 8.94856 109.087 8.65209C109.264 7.96033 109.857 7.46621 110.549 7.46621C110.826 7.46621 111.142 7.56503 111.379 7.72315C112.071 8.15797 112.091 8.71139 112.091 9.48221V13.6921C112.111 14.2653 112.111 14.7594 112.486 15.1942C112.763 15.5104 113.158 15.7476 113.593 15.7476C113.988 15.7476 114.324 15.55 114.423 15.4907C115.095 15.0559 115.115 14.4432 115.154 13.6921V8.9288C115.095 7.96033 115.036 7.54527 114.878 7.11044C114.522 6.12221 113.613 5.33162 112.565 5.03515C112.249 4.95609 111.893 4.8968 111.537 4.8968C110.628 4.8968 109.719 5.1735 108.968 5.68739C108.83 5.78621 108.632 5.92456 108.355 6.1815C107.822 5.66762 107.15 4.91656 105.43 4.91656C104.264 4.91656 103.651 5.31186 103.236 5.58856L102.762 5.94433Z" fill="#0067B5"/>
    <path d="M116.825 2.2088C116.746 3.2168 117.516 4.04692 118.544 4.04692C119.493 4.04692 120.323 3.29586 120.323 2.32739C120.323 1.35892 119.552 0.588091 118.604 0.588091C117.694 0.588091 116.904 1.29962 116.825 2.2088ZM120.066 6.97209C120.027 6.30009 119.987 5.70715 119.414 5.29209C119.078 5.05491 118.722 5.03515 118.564 5.01539C118.386 5.01539 118.03 5.05492 117.655 5.35139C117.062 5.80597 117.022 6.37915 117.003 7.11044V13.8897C117.042 14.5815 117.121 14.8384 117.339 15.1152C117.714 15.6093 118.307 15.7081 118.524 15.7081C118.92 15.7081 119.236 15.5302 119.355 15.4709C119.948 15.0756 120.007 14.5024 120.066 13.7909V6.97209Z" fill="#0067B5"/>
    <path d="M125.037 2.42621C125.037 2.1495 125.097 1.22056 124.286 0.726445C123.95 0.528798 123.654 0.509033 123.515 0.509033C123.041 0.509033 122.685 0.765973 122.567 0.884562C121.954 1.41821 121.954 2.10997 121.974 2.8808V13.7712C122.013 14.542 122.073 15.1152 122.745 15.5104C123.081 15.7081 123.357 15.7279 123.515 15.7279C123.693 15.7279 124.029 15.6883 124.385 15.4314C124.958 14.9966 124.998 14.4234 125.037 13.6723V2.42621Z" fill="#0067B5"/>
    <path d="M131.036 10.846L129.356 6.5175C129.139 5.98386 128.921 5.46997 128.427 5.1735C128.131 4.97586 127.894 4.97586 127.755 4.97586C127.162 4.97586 126.55 5.33162 126.293 5.88503C126.174 6.12221 126.174 6.31986 126.174 6.43844C126.174 6.87327 126.332 7.22903 126.49 7.60456L129.455 14.5815L128.289 17.1707C128.249 17.2497 127.913 17.8822 127.913 18.3566C127.913 18.91 128.309 19.5029 128.862 19.7401C129.04 19.7994 129.198 19.8389 129.396 19.8389C129.85 19.8389 130.265 19.661 130.542 19.3646C130.819 19.0681 130.977 18.653 131.135 18.2775L135.622 7.64409C135.661 7.5255 135.958 6.97209 135.958 6.49774C135.958 5.96409 135.622 5.37115 135.108 5.11421C134.851 4.99562 134.614 4.97586 134.495 4.97586C133.586 4.97586 133.23 5.64786 133.092 5.88503C132.993 6.06292 132.914 6.2408 132.835 6.41868L131.036 10.846Z" fill="#0067B5"/>
    <path d="M48.685 13.2178C48.6257 13.3957 48.6257 13.5538 48.6257 13.6328C48.6257 14.1072 48.9617 14.5223 49.2977 14.8187C50.0883 15.471 51.4323 15.807 52.4798 15.807C53.9029 15.807 55.3655 15.2338 56.0968 13.9491C56.4526 13.3166 56.4921 12.7434 56.4921 12.4667C56.4921 11.9726 56.3142 10.9646 55.2864 10.1543C54.6144 9.62061 53.7843 9.3439 53.5471 9.24508C53.1321 9.08696 52.5391 8.90908 52.1834 8.61261C52.045 8.49402 51.9462 8.35566 51.9462 8.17778C51.9462 7.98013 52.0846 7.58484 52.638 7.58484C53.0728 7.58484 53.4878 7.76272 53.8436 7.92084C54.1994 8.05919 54.6144 8.23708 55.0097 8.23708C55.6817 8.23708 55.998 7.70343 56.0968 7.46625C56.1759 7.28837 56.1956 7.16978 56.1956 6.9919C56.1956 6.73496 56.1363 6.35943 55.7213 5.90484C54.99 5.13402 53.6855 4.95613 53.4879 4.91661C53.1716 4.87708 52.9344 4.87708 52.8159 4.87708C52.302 4.87708 50.7603 4.93637 49.7128 6.20131C49.0408 7.01166 48.942 7.84178 48.942 8.25684C48.942 8.55331 49.021 9.48225 49.6733 10.1543C50.1279 10.6286 50.7999 10.9053 51.9857 11.3797C52.5787 11.6168 52.8159 11.6564 53.053 11.854C53.1519 11.9133 53.4483 12.1703 53.4483 12.5063C53.4483 12.7632 53.2309 13.0004 52.9542 13.0992C52.8159 13.1387 52.6973 13.1387 52.638 13.1387C52.2229 13.1387 51.8474 13.0004 51.1161 12.6446C50.7603 12.4667 50.4046 12.2493 50.0093 12.2493C49.4361 12.2493 48.8629 12.6644 48.685 13.2178Z" fill="#F0AB00"/>
    <path d="M60.8995 6.75472C60.8599 6.28037 60.8402 5.88508 60.5239 5.52931C60.1484 5.07472 59.595 5.01543 59.3973 5.01543C58.9823 5.01543 58.666 5.19331 58.5475 5.27237C57.9743 5.6479 57.8952 6.18155 57.8359 6.83378V11.3006C57.8557 12.0517 57.8755 12.6446 58.1522 13.3364C58.2312 13.4945 58.33 13.7712 58.6068 14.127C59.4764 15.2733 61.0576 15.8465 62.4806 15.8465C64.3188 15.8465 66.2162 14.9966 66.8684 13.2375C67.0858 12.6446 67.0858 12.0319 67.1056 11.3797V6.75472C67.0858 6.47802 67.1056 5.70719 66.3743 5.25261C66.0383 5.03519 65.7023 5.01543 65.5639 5.01543C65.1489 5.01543 64.8326 5.19331 64.7338 5.27237C64.0816 5.70719 64.042 6.3199 64.0223 7.07096V10.9646C64.0025 11.7157 63.9828 12.2691 63.3503 12.7039C63.0736 12.8818 62.8166 12.9806 62.4806 12.9806C62.1051 12.9806 61.8086 12.8225 61.69 12.7632C61.0378 12.3877 60.9588 11.8343 60.8995 11.103V6.75472Z" fill="#F0AB00"/>
    <path d="M78.5492 8.69167C78.5294 8.53355 78.5097 7.48602 78.2132 6.81402C77.8772 6.08272 76.8494 4.89684 74.7741 4.89684C73.5685 4.89684 72.9558 5.29213 71.9675 5.9839C71.592 5.47002 71.256 5.05496 70.5643 5.05496C70.2283 5.05496 69.9515 5.15378 69.6946 5.33166C69.0621 5.78625 69.0028 6.39896 68.9633 7.11049V13.4747C68.9633 14.2258 68.9633 14.8583 69.6155 15.3524C69.7341 15.4512 70.0899 15.6884 70.5247 15.6884C70.841 15.6884 71.1572 15.5698 71.4141 15.3919C71.9873 14.9768 72.0071 14.3839 72.0071 13.6724V9.77872C72.0466 8.98813 72.0861 8.3359 72.7581 7.86155C72.8965 7.74296 73.2523 7.52555 73.7464 7.52555C74.1021 7.52555 74.4777 7.64413 74.7741 7.86155C75.4264 8.31613 75.4461 8.88931 75.4659 9.6799V13.5735C75.4857 14.3246 75.5054 14.9571 76.1577 15.4314C76.2565 15.5105 76.5925 15.7279 77.0075 15.7279C77.1459 15.7279 77.5017 15.6884 77.8574 15.4512C78.5294 14.9768 78.5492 14.3641 78.5492 13.5933V8.69167Z" fill="#F0AB00"/>
    <path d="M3.39336 6.75468C3.35383 6.28033 3.33407 5.88503 3.01783 5.52927C2.6423 5.07468 2.08889 5.01539 1.89125 5.01539C1.47619 5.01539 1.15995 5.19327 1.04136 5.27233C0.468187 5.64786 0.389128 6.1815 0.329834 6.83374V11.3006C0.349599 12.0516 0.369363 12.6446 0.646069 13.3363C0.725128 13.4944 0.823952 13.7712 1.10066 14.1269C1.9703 15.2733 3.55148 15.8464 4.97454 15.8464C6.81266 15.8464 8.71007 14.9966 9.3623 13.2375C9.57972 12.6446 9.57972 12.0319 9.59948 11.3796V6.75468C9.57972 6.47797 9.59948 5.70715 8.86819 5.25256C8.53219 5.03515 8.19619 5.01539 8.05783 5.01539C7.64278 5.01539 7.32654 5.19327 7.22772 5.27233C6.57548 5.70715 6.53595 6.31986 6.51619 7.07092V10.9646C6.49642 11.7156 6.47666 12.269 5.84419 12.7039C5.56748 12.8817 5.31054 12.9806 4.97454 12.9806C4.59901 12.9806 4.30254 12.8224 4.18395 12.7632C3.53172 12.3876 3.45266 11.8342 3.39336 11.1029V6.75468Z" fill="url(#paint0_linear_4813_58524)"/>
    <path d="M14.5603 2.42621C14.5603 2.1495 14.6196 1.22056 13.8092 0.726445C13.4732 0.528798 13.1767 0.509033 13.0384 0.509033C12.564 0.509033 12.2083 0.765973 12.0897 0.884562C11.477 1.41821 11.477 2.10997 11.4967 2.8808V13.7712C11.5363 14.542 11.5956 15.1152 12.2676 15.5104C12.6036 15.7081 12.8803 15.7279 13.0384 15.7279C13.2163 15.7279 13.5523 15.6883 13.908 15.4314C14.4812 14.9966 14.5207 14.4234 14.5603 13.6723V2.42621Z" fill="url(#paint1_linear_4813_58524)"/>
    <path d="M20.5592 5.13397C20.5394 4.8375 20.5394 4.54103 20.5394 4.2248C20.5394 3.90856 20.5592 3.59233 20.5592 3.27609C20.5592 3.19703 20.5592 2.90056 20.4801 2.66339C20.3022 2.09021 19.6895 1.65539 19.057 1.63562C18.4641 1.63562 17.8119 2.07045 17.5945 2.60409C17.4166 2.99939 17.4956 3.67139 17.4956 3.75044C17.4956 4.20503 17.4956 4.65962 17.4759 5.11421C16.8236 5.15374 16.3098 5.21303 15.9342 5.80597C15.8552 5.9048 15.697 6.1815 15.697 6.55703C15.697 6.69539 15.7168 6.99186 15.9145 7.30809C16.29 7.88127 16.8236 7.9208 17.4759 7.96033V13.7119C17.4956 14.4432 17.5154 15.0361 18.1676 15.4512C18.4246 15.629 18.6815 15.7081 18.9978 15.7081C19.314 15.7081 19.6302 15.5895 19.8872 15.3919C20.4999 14.9373 20.5196 14.3246 20.5394 13.5933V7.96033C21.3498 7.96033 21.7846 7.96033 22.1206 7.76268C22.5159 7.5255 22.8123 7.03139 22.8123 6.55703C22.8321 6.12221 22.6147 5.80597 22.5356 5.68739C22.1601 5.19327 21.666 5.13397 21.073 5.13397H20.5592Z" fill="url(#paint2_linear_4813_58524)"/>
    <path d="M26.815 10.3716C26.8348 9.71939 26.8545 9.2648 27.2894 8.81021C27.7835 8.29633 28.5148 8.05915 28.7124 7.98009C29.2658 7.80221 29.8983 7.68362 30.2936 7.20927C30.511 6.93256 30.5308 6.65586 30.5308 6.5175C30.5308 5.94433 30.175 5.37115 29.6611 5.11421C29.5623 5.07468 29.2856 4.97586 28.9891 4.97586C28.1392 4.97586 27.4475 5.58856 26.8545 6.12221C26.5976 5.68739 26.3604 5.27233 25.8861 5.11421C25.807 5.07468 25.6094 5.01539 25.3524 5.01539C25.1745 5.01539 24.8188 5.03515 24.4432 5.29209C23.8503 5.70715 23.8108 6.26056 23.791 6.5175C23.7712 6.71515 23.7712 6.9128 23.7712 7.11044V13.7514C23.7712 14.4629 23.791 14.9966 24.4235 15.4314C24.6804 15.5895 24.9769 15.7081 25.2931 15.7081C25.6094 15.7081 25.9454 15.5895 26.2023 15.3919C26.7557 14.957 26.7952 14.3443 26.815 13.6328V10.3716Z" fill="url(#paint3_linear_4813_58524)"/>
    <path d="M41.1348 7.11044C41.1348 6.49774 41.1348 6.02339 40.7396 5.5688C40.6012 5.39092 40.2257 5.03515 39.613 5.03515C38.8619 5.03515 38.5061 5.46997 38.1108 6.06292C37.3005 5.35139 36.7273 4.91656 35.6205 4.91656C34.5334 4.91656 33.6836 5.35139 33.3673 5.52927C31.0153 6.89303 30.8177 9.56127 30.8177 10.4309C30.8177 12.6841 31.885 13.9886 32.5372 14.5815C32.9127 14.957 33.9603 15.8267 35.5217 15.8267C36.5099 15.8267 37.1424 15.4512 37.4586 15.214C37.676 15.0361 38.0318 14.6803 38.0515 14.6606C38.4468 15.2535 38.7828 15.7279 39.5537 15.7279C39.8897 15.7279 40.1861 15.629 40.4826 15.4116C41.0755 14.9768 41.1151 14.4629 41.1348 13.7514V7.11044ZM33.8812 10.1937C33.98 8.31609 35.2252 7.80221 35.9763 7.80221C36.8459 7.80221 37.5772 8.51374 37.8539 9.32409C37.9923 9.73915 38.012 10.1147 38.012 10.2926C37.9923 11.2017 37.676 12.1307 36.925 12.6248C36.7866 12.7039 36.3913 12.941 35.8972 12.941C35.3635 12.941 35.0078 12.6841 34.8299 12.5655C33.8219 11.7947 33.8417 10.5693 33.8812 10.1937Z" fill="url(#paint4_linear_4813_58524)"/>
    <defs>
        <linearGradient id="paint0_linear_4813_58524" x1="0.329834" y1="15.8464" x2="10.7117" y2="-11.1783" gradientUnits="userSpaceOnUse">
            <stop stop-color="#FB7099"/>
            <stop offset="1" stop-color="#F0AB13"/>
        </linearGradient>
        <linearGradient id="paint1_linear_4813_58524" x1="0.329834" y1="15.8464" x2="10.7117" y2="-11.1783" gradientUnits="userSpaceOnUse">
            <stop stop-color="#FB7099"/>
            <stop offset="1" stop-color="#F0AB13"/>
        </linearGradient>
        <linearGradient id="paint2_linear_4813_58524" x1="0.329834" y1="15.8464" x2="10.7117" y2="-11.1783" gradientUnits="userSpaceOnUse">
            <stop stop-color="#FB7099"/>
            <stop offset="1" stop-color="#F0AB13"/>
        </linearGradient>
        <linearGradient id="paint3_linear_4813_58524" x1="0.329834" y1="15.8464" x2="10.7117" y2="-11.1783" gradientUnits="userSpaceOnUse">
            <stop stop-color="#FB7099"/>
            <stop offset="1" stop-color="#F0AB13"/>
        </linearGradient>
        <linearGradient id="paint4_linear_4813_58524" x1="0.329834" y1="15.8464" x2="10.7117" y2="-11.1783" gradientUnits="userSpaceOnUse">
            <stop stop-color="#FB7099"/>
            <stop offset="1" stop-color="#F0AB13"/>
        </linearGradient>
    </defs>
</svg>
