<svg width="24" height="30" viewBox="0 0 24 30" fill="none" xmlns="http://www.w3.org/2000/svg">
<path d="M3.60785 29.0649V0.504883H12.7278C16.4078 0.504883 19.0879 1.25155 20.7679 2.74488C22.4745 4.23822 23.3279 6.29155 23.3279 8.90488C23.3279 10.4516 22.9812 11.9049 22.2879 13.2649C21.5945 14.6249 20.4345 15.7182 18.8078 16.5449C17.2078 17.3716 15.0212 17.7849 12.2478 17.7849H9.64786V29.0649H3.60785ZM0.407837 24.7849V20.9049H15.8078V24.7849H0.407837ZM0.407837 17.7849V12.8249H6.26784H12.1278V17.7849H0.407837ZM11.6479 12.8249C12.7945 12.8249 13.7812 12.7049 14.6078 12.4649C15.4345 12.1982 16.0745 11.7849 16.5279 11.2249C16.9812 10.6649 17.2079 9.95822 17.2079 9.10488C17.2079 7.87822 16.8212 6.97155 16.0478 6.38488C15.2745 5.77155 14.0612 5.46488 12.4079 5.46488H9.64786V12.8249H11.6479Z" fill="black"/>
</svg>
